 <svg  version="1.0" xmlns="http://www.w3.org/2000/svg"  width="300.000000pt" height="300.000000pt" viewBox="0 0 300.000000 300.000000"  preserveAspectRatio="xMidYMid meet">  <g transform="translate(0.000000,300.000000) scale(0.050000,-0.050000)" fill="#ffffff" stroke="none"> <path d="M4986 5765 c-39 -41 -152 -183 -251 -315 -612 -814 -2627 -3026 -3610 -3964 -614 -586 -813 -786 -780 -786 18 0 135 36 259 80 124 45 361 118 526 163 165 45 395 107 510 139 683 189 1337 310 1311 243 -177 -453 -254 -887 -173 -973 184 -196 342 42 650 982 39 119 35 117 292 145 1231 136 1733 219 1873 311 295 194 -919 257 -1888 99 -53 -9 -85 -7 -85 6 0 33 143 433 161 453 34 36 367 72 1116 121 638 42 814 74 723 132 -38 24 -729 23 -1070 -1 -583 -42 -690 -46 -690 -26 0 26 253 644 350 856 41 88 90 197 111 242 20 45 87 188 148 317 61 129 111 238 111 241 0 3 51 112 112 243 514 1083 593 1367 384 1367 -11 0 -52 -34 -90 -75z m-1013 -2008 c-49 -103 -167 -349 -263 -547 -95 -198 -200 -427 -233 -510 -34 -82 -77 -186 -97 -230 -46 -103 -172 -425 -213 -546 -43 -130 -53 -138 -214 -185 -79 -23 -165 -49 -193 -58 -27 -9 -86 -26 -130 -38 -191 -51 -704 -216 -987 -316 -169 -60 -311 -106 -314 -102 -4 3 124 122 283 263 714 633 1585 1508 2236 2248 234 265 242 267 125 21z"/> </g> </svg> 